<svg xmlns="http://www.w3.org/2000/svg" viewBox="0 0 600 400" width="600" height="400"><defs><linearGradient id="s" x1="0" y1="0" x2="0" y2="1"><stop offset="0" stop-color="#3a3f8a"/><stop offset="1" stop-color="#ffb37a"/></linearGradient><linearGradient id="w" x1="0" y1="0" x2="0" y2="1"><stop offset="0" stop-color="#ff9a6b"/><stop offset="1" stop-color="#3f7fb8"/></linearGradient></defs><rect x="0" y="0" width="600" height="260" fill="url(#s)" /><circle cx="300" cy="255" r="64" fill="#ffe08a" /><rect x="0" y="255" width="600" height="85" fill="url(#w)" /><rect x="260" y="262" width="80" height="4" fill="#ffe08a" opacity=".7"/><rect x="268" y="276" width="64" height="4" fill="#ffe08a" opacity=".7"/><rect x="276" y="290" width="48" height="4" fill="#ffe08a" opacity=".7"/><rect x="284" y="304" width="32" height="4" fill="#ffe08a" opacity=".7"/><rect x="0" y="335" width="600" height="65" fill="#f2d7a0" /><path d="M0 335 q40 -14 80 0 t80 0 t80 0 t80 0 t80 0 t80 0 t80 0 t80 0" stroke="#fff" stroke-width="4" fill="none"/></svg>