<svg xmlns="http://www.w3.org/2000/svg" viewBox="0 0 600 400" width="600" height="400"><defs><linearGradient id="s" x1="0" y1="0" x2="0" y2="1"><stop offset="0" stop-color="#aebfd6"/><stop offset="1" stop-color="#eef2f7"/></linearGradient></defs><rect width="600" height="400" fill="url(#s)"/><polygon points="0,260 120,120 220,230 330,90 450,230 520,160 600,250 600,400 0,400" fill="#7d93b5" /><polygon points="330,90 300,140 330,128 355,150" fill="#fff" /><polygon points="120,120 98,162 120,150 142,166" fill="#fff" /><polygon points="0,320 150,200 280,300 420,190 600,310 600,400 0,400" fill="#4a6285" /><polygon points="420,190 392,236 418,226 440,242" fill="#fff" /><ellipse cx="300" cy="300" rx="340" ry="36" fill="#fff" opacity=".55"/><rect x="0" y="345" width="600" height="55" fill="#35506f" /><ellipse cx="300" cy="352" rx="300" ry="14" fill="#fff" opacity=".35"/></svg>