<svg xmlns="http://www.w3.org/2000/svg" viewBox="0 0 600 400" width="600" height="400"><defs><linearGradient id="s" x1="0" y1="0" x2="0" y2="1"><stop offset="0" stop-color="#8fd0f0"/><stop offset="1" stop-color="#e8f6fc"/></linearGradient></defs><rect width="600" height="400" fill="url(#s)"/><circle cx="480" cy="90" r="34" fill="#fff7c8" /><rect x="0" y="260" width="600" height="140" fill="#2a7fb0" /><path d="M-20 280 q20 -10 40 0 t40 0" stroke="#fff" stroke-width="3" fill="none" opacity=".6"/><path d="M50 310 q20 -10 40 0 t40 0" stroke="#fff" stroke-width="3" fill="none" opacity=".6"/><path d="M120 340 q20 -10 40 0 t40 0" stroke="#fff" stroke-width="3" fill="none" opacity=".6"/><path d="M190 280 q20 -10 40 0 t40 0" stroke="#fff" stroke-width="3" fill="none" opacity=".6"/><path d="M260 310 q20 -10 40 0 t40 0" stroke="#fff" stroke-width="3" fill="none" opacity=".6"/><path d="M330 340 q20 -10 40 0 t40 0" stroke="#fff" stroke-width="3" fill="none" opacity=".6"/><path d="M400 280 q20 -10 40 0 t40 0" stroke="#fff" stroke-width="3" fill="none" opacity=".6"/><path d="M470 310 q20 -10 40 0 t40 0" stroke="#fff" stroke-width="3" fill="none" opacity=".6"/><path d="M540 340 q20 -10 40 0 t40 0" stroke="#fff" stroke-width="3" fill="none" opacity=".6"/><path d="M120 110 q21 -28 42 0 q21 -28 42 0" stroke="#fff" stroke-width="5.6" fill="none" stroke-linecap="round"/><path d="M260 70 q15 -20 30 0 q15 -20 30 0" stroke="#fff" stroke-width="4" fill="none" stroke-linecap="round"/><path d="M360 150 q18 -24 36 0 q18 -24 36 0" stroke="#fff" stroke-width="4.8" fill="none" stroke-linecap="round"/><path d="M200 190 q12 -16 24 0 q12 -16 24 0" stroke="#fff" stroke-width="3.2" fill="none" stroke-linecap="round"/><path d="M440 200 q10.5 -14 21 0 q10.5 -14 21 0" stroke="#fff" stroke-width="2.8" fill="none" stroke-linecap="round"/></svg>