<svg xmlns="http://www.w3.org/2000/svg" viewBox="0 0 600 400" width="600" height="400"><defs><linearGradient id="s" x1="0" y1="0" x2="0" y2="1"><stop offset="0" stop-color="#a9d6f5"/><stop offset="1" stop-color="#eaf6ff"/></linearGradient></defs><rect width="600" height="400" fill="url(#s)"/><polygon points="0,260 110,150 200,230 330,110 460,230 560,160 600,200 600,400 0,400" fill="#8fb0c9" /><polygon points="0,300 150,210 320,265 480,175 600,235 600,400 0,400" fill="#4f9a5b" /><line x1="0" y1="360" x2="600" y2="210" stroke="#4a3b2f" stroke-width="8"/><g transform="translate(130,322) rotate(-14)"><rect x="0" y="-36" width="86" height="36" fill="#962d22" rx="5"/><rect x="10" y="-28" width="16" height="14" fill="#dff1ff" /><rect x="34" y="-28" width="16" height="14" fill="#dff1ff" /><rect x="58" y="-28" width="16" height="14" fill="#dff1ff" /><circle cx="20" cy="2" r="6" fill="#222" /><circle cx="66" cy="2" r="6" fill="#222" /><rect x="92" y="-36" width="86" height="36" fill="#c0392b" rx="5"/><rect x="102" y="-28" width="16" height="14" fill="#dff1ff" /><rect x="126" y="-28" width="16" height="14" fill="#dff1ff" /><rect x="150" y="-28" width="16" height="14" fill="#dff1ff" /><circle cx="112" cy="2" r="6" fill="#222" /><circle cx="158" cy="2" r="6" fill="#222" /><rect x="184" y="-36" width="86" height="36" fill="#c0392b" rx="5"/><rect x="194" y="-28" width="16" height="14" fill="#dff1ff" /><rect x="218" y="-28" width="16" height="14" fill="#dff1ff" /><rect x="242" y="-28" width="16" height="14" fill="#dff1ff" /><circle cx="204" cy="2" r="6" fill="#222" /><circle cx="250" cy="2" r="6" fill="#222" /></g></svg>